<mxfile host="app.diagrams.net" agent="Mozilla/5.0 (Windows NT 10.0; Win64; x64) AppleWebKit/537.36 (KHTML, like Gecko) Chrome/128.0.0.0 Safari/537.36" version="24.7.16">
  <diagram name="Страница — 1" id="JlTObDllQHueLxhqmbHU">
    <mxGraphModel dx="3000" dy="2683" grid="1" gridSize="10" guides="1" tooltips="1" connect="1" arrows="1" fold="1" page="1" pageScale="1" pageWidth="827" pageHeight="1169" math="0" shadow="0">
      <root>
        <mxCell id="0" />
        <mxCell id="1" parent="0" />
        <mxCell id="3YSj2OsYEMi9KOAI4YBQ-1" value="Гость" style="shape=umlActor;verticalLabelPosition=bottom;verticalAlign=top;html=1;outlineConnect=0;" vertex="1" parent="1">
          <mxGeometry x="170" y="80" width="30" height="60" as="geometry" />
        </mxCell>
        <mxCell id="3YSj2OsYEMi9KOAI4YBQ-2" value="Администратор" style="shape=umlActor;verticalLabelPosition=bottom;verticalAlign=top;html=1;outlineConnect=0;" vertex="1" parent="1">
          <mxGeometry x="1570" y="390" width="30" height="60" as="geometry" />
        </mxCell>
        <mxCell id="3YSj2OsYEMi9KOAI4YBQ-3" value="Пользователь" style="shape=umlActor;verticalLabelPosition=bottom;verticalAlign=top;html=1;outlineConnect=0;" vertex="1" parent="1">
          <mxGeometry x="170" y="579" width="30" height="60" as="geometry" />
        </mxCell>
        <mxCell id="3YSj2OsYEMi9KOAI4YBQ-7" value="Регистрация" style="ellipse;whiteSpace=wrap;html=1;" vertex="1" parent="1">
          <mxGeometry x="370" y="80" width="130" height="40" as="geometry" />
        </mxCell>
        <mxCell id="3YSj2OsYEMi9KOAI4YBQ-11" value="&amp;lt;&amp;lt;include&amp;gt;&amp;gt;" style="html=1;verticalAlign=bottom;labelBackgroundColor=none;endArrow=open;endFill=0;dashed=1;rounded=0;exitX=1;exitY=0.5;exitDx=0;exitDy=0;entryX=0;entryY=0.5;entryDx=0;entryDy=0;" edge="1" parent="1" source="3YSj2OsYEMi9KOAI4YBQ-50" target="3YSj2OsYEMi9KOAI4YBQ-53">
          <mxGeometry width="160" relative="1" as="geometry">
            <mxPoint x="522.5" y="1339" as="sourcePoint" />
            <mxPoint x="682.5" y="1339" as="targetPoint" />
          </mxGeometry>
        </mxCell>
        <mxCell id="3YSj2OsYEMi9KOAI4YBQ-12" value="&amp;lt;&amp;lt;include&amp;gt;&amp;gt;" style="html=1;verticalAlign=bottom;labelBackgroundColor=none;endArrow=open;endFill=0;dashed=1;rounded=0;exitX=0.5;exitY=0;exitDx=0;exitDy=0;entryX=0.5;entryY=1;entryDx=0;entryDy=0;" edge="1" parent="1" source="3YSj2OsYEMi9KOAI4YBQ-29" target="3YSj2OsYEMi9KOAI4YBQ-31">
          <mxGeometry width="160" relative="1" as="geometry">
            <mxPoint x="810" y="350" as="sourcePoint" />
            <mxPoint x="970" y="350" as="targetPoint" />
          </mxGeometry>
        </mxCell>
        <mxCell id="3YSj2OsYEMi9KOAI4YBQ-13" value="&amp;lt;&amp;lt;include&amp;gt;&amp;gt;" style="html=1;verticalAlign=bottom;labelBackgroundColor=none;endArrow=open;endFill=0;dashed=1;rounded=0;exitX=1;exitY=0.5;exitDx=0;exitDy=0;entryX=0.5;entryY=0;entryDx=0;entryDy=0;" edge="1" parent="1" source="3YSj2OsYEMi9KOAI4YBQ-7" target="3YSj2OsYEMi9KOAI4YBQ-31">
          <mxGeometry width="160" relative="1" as="geometry">
            <mxPoint x="640" y="110" as="sourcePoint" />
            <mxPoint x="590" y="40" as="targetPoint" />
          </mxGeometry>
        </mxCell>
        <mxCell id="3YSj2OsYEMi9KOAI4YBQ-14" value="&amp;lt;&amp;lt;include&amp;gt;&amp;gt;" style="html=1;verticalAlign=bottom;labelBackgroundColor=none;endArrow=open;endFill=0;dashed=1;rounded=0;exitX=0.5;exitY=0;exitDx=0;exitDy=0;entryX=0.5;entryY=1;entryDx=0;entryDy=0;" edge="1" parent="1" source="3YSj2OsYEMi9KOAI4YBQ-7" target="3YSj2OsYEMi9KOAI4YBQ-32">
          <mxGeometry width="160" relative="1" as="geometry">
            <mxPoint x="770" y="130" as="sourcePoint" />
            <mxPoint x="475" y="-20" as="targetPoint" />
          </mxGeometry>
        </mxCell>
        <mxCell id="3YSj2OsYEMi9KOAI4YBQ-20" value="&amp;lt;&amp;lt;extend&amp;gt;&amp;gt;" style="html=1;verticalAlign=bottom;labelBackgroundColor=none;endArrow=open;endFill=0;dashed=1;rounded=0;entryX=0.5;entryY=0;entryDx=0;entryDy=0;exitX=0;exitY=1;exitDx=0;exitDy=0;" edge="1" parent="1" source="3YSj2OsYEMi9KOAI4YBQ-42" target="3YSj2OsYEMi9KOAI4YBQ-40">
          <mxGeometry width="160" relative="1" as="geometry">
            <mxPoint x="540" y="539" as="sourcePoint" />
            <mxPoint x="800" y="598.29" as="targetPoint" />
          </mxGeometry>
        </mxCell>
        <mxCell id="3YSj2OsYEMi9KOAI4YBQ-29" value="Авторизация" style="ellipse;whiteSpace=wrap;html=1;" vertex="1" parent="1">
          <mxGeometry x="370" y="280" width="130" height="40" as="geometry" />
        </mxCell>
        <mxCell id="3YSj2OsYEMi9KOAI4YBQ-30" value="Ввести пароль" style="ellipse;whiteSpace=wrap;html=1;" vertex="1" parent="1">
          <mxGeometry x="370" y="180" width="130" height="40" as="geometry" />
        </mxCell>
        <mxCell id="3YSj2OsYEMi9KOAI4YBQ-31" value="Ввести email" style="ellipse;whiteSpace=wrap;html=1;" vertex="1" parent="1">
          <mxGeometry x="550" y="160" width="130" height="40" as="geometry" />
        </mxCell>
        <mxCell id="3YSj2OsYEMi9KOAI4YBQ-32" value="Ввести имя" style="ellipse;whiteSpace=wrap;html=1;" vertex="1" parent="1">
          <mxGeometry x="410" y="-30" width="130" height="40" as="geometry" />
        </mxCell>
        <mxCell id="3YSj2OsYEMi9KOAI4YBQ-33" value="&amp;lt;&amp;lt;include&amp;gt;&amp;gt;" style="html=1;verticalAlign=bottom;labelBackgroundColor=none;endArrow=open;endFill=0;dashed=1;rounded=0;exitX=0.5;exitY=1;exitDx=0;exitDy=0;entryX=0.5;entryY=0;entryDx=0;entryDy=0;" edge="1" parent="1" source="3YSj2OsYEMi9KOAI4YBQ-7" target="3YSj2OsYEMi9KOAI4YBQ-30">
          <mxGeometry width="160" relative="1" as="geometry">
            <mxPoint x="780" y="260" as="sourcePoint" />
            <mxPoint x="940" y="260" as="targetPoint" />
          </mxGeometry>
        </mxCell>
        <mxCell id="3YSj2OsYEMi9KOAI4YBQ-34" value="&amp;lt;&amp;lt;include&amp;gt;&amp;gt;" style="html=1;verticalAlign=bottom;labelBackgroundColor=none;endArrow=open;endFill=0;dashed=1;rounded=0;exitX=0.5;exitY=0;exitDx=0;exitDy=0;entryX=0.5;entryY=1;entryDx=0;entryDy=0;" edge="1" parent="1" source="3YSj2OsYEMi9KOAI4YBQ-29" target="3YSj2OsYEMi9KOAI4YBQ-30">
          <mxGeometry width="160" relative="1" as="geometry">
            <mxPoint x="860" y="270" as="sourcePoint" />
            <mxPoint x="1020" y="270" as="targetPoint" />
          </mxGeometry>
        </mxCell>
        <mxCell id="3YSj2OsYEMi9KOAI4YBQ-35" value="" style="endArrow=none;html=1;rounded=0;exitX=1;exitY=0.3333333333333333;exitDx=0;exitDy=0;exitPerimeter=0;entryX=0;entryY=0.5;entryDx=0;entryDy=0;" edge="1" parent="1" source="3YSj2OsYEMi9KOAI4YBQ-1" target="3YSj2OsYEMi9KOAI4YBQ-7">
          <mxGeometry width="50" height="50" relative="1" as="geometry">
            <mxPoint x="240" y="220" as="sourcePoint" />
            <mxPoint x="290" y="170" as="targetPoint" />
          </mxGeometry>
        </mxCell>
        <mxCell id="3YSj2OsYEMi9KOAI4YBQ-36" value="" style="endArrow=none;html=1;rounded=0;entryX=1;entryY=0.3333333333333333;entryDx=0;entryDy=0;entryPerimeter=0;exitX=0;exitY=0.5;exitDx=0;exitDy=0;" edge="1" parent="1" source="3YSj2OsYEMi9KOAI4YBQ-29" target="3YSj2OsYEMi9KOAI4YBQ-1">
          <mxGeometry width="50" height="50" relative="1" as="geometry">
            <mxPoint x="250" y="220" as="sourcePoint" />
            <mxPoint x="424" y="110" as="targetPoint" />
          </mxGeometry>
        </mxCell>
        <mxCell id="3YSj2OsYEMi9KOAI4YBQ-40" value="Просмотр вторсырья" style="ellipse;whiteSpace=wrap;html=1;" vertex="1" parent="1">
          <mxGeometry x="370" y="579" width="130" height="40" as="geometry" />
        </mxCell>
        <mxCell id="3YSj2OsYEMi9KOAI4YBQ-41" value="" style="endArrow=none;html=1;rounded=0;entryX=1;entryY=0.3333333333333333;entryDx=0;entryDy=0;entryPerimeter=0;exitX=0;exitY=0.5;exitDx=0;exitDy=0;" edge="1" parent="1" source="3YSj2OsYEMi9KOAI4YBQ-40" target="3YSj2OsYEMi9KOAI4YBQ-3">
          <mxGeometry width="50" height="50" relative="1" as="geometry">
            <mxPoint x="380" y="419" as="sourcePoint" />
            <mxPoint x="210" y="219" as="targetPoint" />
          </mxGeometry>
        </mxCell>
        <mxCell id="3YSj2OsYEMi9KOAI4YBQ-42" value="Просмотр точек сбора по виду вторсырья" style="ellipse;whiteSpace=wrap;html=1;" vertex="1" parent="1">
          <mxGeometry x="500" y="479" width="160" height="60" as="geometry" />
        </mxCell>
        <mxCell id="3YSj2OsYEMi9KOAI4YBQ-43" value="Просмотр скидок" style="ellipse;whiteSpace=wrap;html=1;" vertex="1" parent="1">
          <mxGeometry x="370" y="669" width="130" height="40" as="geometry" />
        </mxCell>
        <mxCell id="3YSj2OsYEMi9KOAI4YBQ-44" value="" style="endArrow=none;html=1;rounded=0;entryX=1;entryY=0.3333333333333333;entryDx=0;entryDy=0;entryPerimeter=0;exitX=0;exitY=0.5;exitDx=0;exitDy=0;" edge="1" parent="1" source="3YSj2OsYEMi9KOAI4YBQ-43" target="3YSj2OsYEMi9KOAI4YBQ-3">
          <mxGeometry width="50" height="50" relative="1" as="geometry">
            <mxPoint x="380" y="639" as="sourcePoint" />
            <mxPoint x="210" y="639" as="targetPoint" />
          </mxGeometry>
        </mxCell>
        <mxCell id="3YSj2OsYEMi9KOAI4YBQ-45" value="&amp;lt;&amp;lt;extend&amp;gt;&amp;gt;" style="html=1;verticalAlign=bottom;labelBackgroundColor=none;endArrow=open;endFill=0;dashed=1;rounded=0;exitX=0;exitY=1;exitDx=0;exitDy=0;entryX=1;entryY=0.5;entryDx=0;entryDy=0;" edge="1" parent="1" source="3YSj2OsYEMi9KOAI4YBQ-46" target="3YSj2OsYEMi9KOAI4YBQ-43">
          <mxGeometry width="160" relative="1" as="geometry">
            <mxPoint x="658" y="639" as="sourcePoint" />
            <mxPoint x="570" y="688" as="targetPoint" />
          </mxGeometry>
        </mxCell>
        <mxCell id="3YSj2OsYEMi9KOAI4YBQ-46" value="Обмен баллов на скидки в сервисах" style="ellipse;whiteSpace=wrap;html=1;" vertex="1" parent="1">
          <mxGeometry x="560" y="599" width="160" height="50" as="geometry" />
        </mxCell>
        <mxCell id="3YSj2OsYEMi9KOAI4YBQ-47" value="Просмотр статей" style="ellipse;whiteSpace=wrap;html=1;" vertex="1" parent="1">
          <mxGeometry x="370" y="370" width="135" height="30" as="geometry" />
        </mxCell>
        <mxCell id="3YSj2OsYEMi9KOAI4YBQ-48" value="" style="endArrow=none;html=1;rounded=0;entryX=1;entryY=0.3333333333333333;entryDx=0;entryDy=0;entryPerimeter=0;exitX=0;exitY=0.5;exitDx=0;exitDy=0;" edge="1" parent="1" source="3YSj2OsYEMi9KOAI4YBQ-47" target="3YSj2OsYEMi9KOAI4YBQ-1">
          <mxGeometry width="50" height="50" relative="1" as="geometry">
            <mxPoint x="290" y="430" as="sourcePoint" />
            <mxPoint x="120" y="230" as="targetPoint" />
          </mxGeometry>
        </mxCell>
        <mxCell id="3YSj2OsYEMi9KOAI4YBQ-49" value="" style="endArrow=none;html=1;rounded=0;exitX=0.5;exitY=1;exitDx=0;exitDy=0;entryX=1;entryY=0.3333333333333333;entryDx=0;entryDy=0;entryPerimeter=0;" edge="1" parent="1" source="3YSj2OsYEMi9KOAI4YBQ-47" target="3YSj2OsYEMi9KOAI4YBQ-3">
          <mxGeometry width="50" height="50" relative="1" as="geometry">
            <mxPoint x="380" y="609" as="sourcePoint" />
            <mxPoint x="220" y="550" as="targetPoint" />
          </mxGeometry>
        </mxCell>
        <mxCell id="3YSj2OsYEMi9KOAI4YBQ-50" value="Отметка сдачи вторсырья" style="ellipse;whiteSpace=wrap;html=1;" vertex="1" parent="1">
          <mxGeometry x="375" y="1060" width="130" height="40" as="geometry" />
        </mxCell>
        <mxCell id="3YSj2OsYEMi9KOAI4YBQ-51" value="" style="endArrow=none;html=1;rounded=0;entryX=1;entryY=0.3333333333333333;entryDx=0;entryDy=0;entryPerimeter=0;exitX=0;exitY=0.5;exitDx=0;exitDy=0;" edge="1" parent="1" source="3YSj2OsYEMi9KOAI4YBQ-50" target="3YSj2OsYEMi9KOAI4YBQ-3">
          <mxGeometry width="50" height="50" relative="1" as="geometry">
            <mxPoint x="370" y="759" as="sourcePoint" />
            <mxPoint x="200" y="669" as="targetPoint" />
          </mxGeometry>
        </mxCell>
        <mxCell id="3YSj2OsYEMi9KOAI4YBQ-53" value="Просмотр сколько новой продукции будет сделано" style="ellipse;whiteSpace=wrap;html=1;" vertex="1" parent="1">
          <mxGeometry x="590" y="1090" width="170" height="50" as="geometry" />
        </mxCell>
        <mxCell id="3YSj2OsYEMi9KOAI4YBQ-54" value="Управление статьями" style="ellipse;whiteSpace=wrap;html=1;" vertex="1" parent="1">
          <mxGeometry x="372.5" y="790" width="130" height="40" as="geometry" />
        </mxCell>
        <mxCell id="3YSj2OsYEMi9KOAI4YBQ-55" value="Удаление статьи" style="ellipse;whiteSpace=wrap;html=1;" vertex="1" parent="1">
          <mxGeometry x="660" y="850" width="130" height="40" as="geometry" />
        </mxCell>
        <mxCell id="3YSj2OsYEMi9KOAI4YBQ-56" value="Изменение статьи" style="ellipse;whiteSpace=wrap;html=1;" vertex="1" parent="1">
          <mxGeometry x="660" y="790" width="130" height="40" as="geometry" />
        </mxCell>
        <mxCell id="3YSj2OsYEMi9KOAI4YBQ-57" value="Добавление статьи" style="ellipse;whiteSpace=wrap;html=1;" vertex="1" parent="1">
          <mxGeometry x="660" y="730" width="130" height="40" as="geometry" />
        </mxCell>
        <mxCell id="3YSj2OsYEMi9KOAI4YBQ-58" value="&amp;lt;&amp;lt;extend&amp;gt;&amp;gt;" style="html=1;verticalAlign=bottom;labelBackgroundColor=none;endArrow=open;endFill=0;dashed=1;rounded=0;exitX=0;exitY=0.5;exitDx=0;exitDy=0;entryX=1;entryY=1;entryDx=0;entryDy=0;" edge="1" parent="1" source="3YSj2OsYEMi9KOAI4YBQ-55" target="3YSj2OsYEMi9KOAI4YBQ-54">
          <mxGeometry width="160" relative="1" as="geometry">
            <mxPoint x="643" y="880" as="sourcePoint" />
            <mxPoint x="560" y="927" as="targetPoint" />
          </mxGeometry>
        </mxCell>
        <mxCell id="3YSj2OsYEMi9KOAI4YBQ-59" value="&amp;lt;&amp;lt;extend&amp;gt;&amp;gt;" style="html=1;verticalAlign=bottom;labelBackgroundColor=none;endArrow=open;endFill=0;dashed=1;rounded=0;exitX=0;exitY=0.5;exitDx=0;exitDy=0;entryX=1;entryY=0.5;entryDx=0;entryDy=0;" edge="1" parent="1" source="3YSj2OsYEMi9KOAI4YBQ-56" target="3YSj2OsYEMi9KOAI4YBQ-54">
          <mxGeometry width="160" relative="1" as="geometry">
            <mxPoint x="633" y="840" as="sourcePoint" />
            <mxPoint x="550" y="887" as="targetPoint" />
          </mxGeometry>
        </mxCell>
        <mxCell id="3YSj2OsYEMi9KOAI4YBQ-60" value="&amp;lt;&amp;lt;extend&amp;gt;&amp;gt;" style="html=1;verticalAlign=bottom;labelBackgroundColor=none;endArrow=open;endFill=0;dashed=1;rounded=0;exitX=0;exitY=0.5;exitDx=0;exitDy=0;entryX=1;entryY=0;entryDx=0;entryDy=0;" edge="1" parent="1" source="3YSj2OsYEMi9KOAI4YBQ-57" target="3YSj2OsYEMi9KOAI4YBQ-54">
          <mxGeometry width="160" relative="1" as="geometry">
            <mxPoint x="623" y="813" as="sourcePoint" />
            <mxPoint x="540" y="860" as="targetPoint" />
          </mxGeometry>
        </mxCell>
        <mxCell id="3YSj2OsYEMi9KOAI4YBQ-61" value="" style="endArrow=none;html=1;rounded=0;entryX=1;entryY=0.3333333333333333;entryDx=0;entryDy=0;entryPerimeter=0;exitX=0;exitY=0.5;exitDx=0;exitDy=0;" edge="1" parent="1" source="3YSj2OsYEMi9KOAI4YBQ-54" target="3YSj2OsYEMi9KOAI4YBQ-3">
          <mxGeometry width="50" height="50" relative="1" as="geometry">
            <mxPoint x="390" y="790" as="sourcePoint" />
            <mxPoint x="220" y="700" as="targetPoint" />
          </mxGeometry>
        </mxCell>
        <mxCell id="3YSj2OsYEMi9KOAI4YBQ-62" value="Оценка статей" style="ellipse;whiteSpace=wrap;html=1;" vertex="1" parent="1">
          <mxGeometry x="375" y="940" width="130" height="40" as="geometry" />
        </mxCell>
        <mxCell id="3YSj2OsYEMi9KOAI4YBQ-63" value="Добавление отметки&lt;div&gt;&quot;Нравится&quot;&lt;/div&gt;" style="ellipse;whiteSpace=wrap;html=1;" vertex="1" parent="1">
          <mxGeometry x="660" y="1030" width="130" height="40" as="geometry" />
        </mxCell>
        <mxCell id="3YSj2OsYEMi9KOAI4YBQ-64" value="Удаления комментария" style="ellipse;whiteSpace=wrap;html=1;" vertex="1" parent="1">
          <mxGeometry x="660" y="970" width="130" height="40" as="geometry" />
        </mxCell>
        <mxCell id="3YSj2OsYEMi9KOAI4YBQ-65" value="Добавление комментария" style="ellipse;whiteSpace=wrap;html=1;" vertex="1" parent="1">
          <mxGeometry x="660" y="910" width="130" height="40" as="geometry" />
        </mxCell>
        <mxCell id="3YSj2OsYEMi9KOAI4YBQ-66" value="&amp;lt;&amp;lt;extend&amp;gt;&amp;gt;" style="html=1;verticalAlign=bottom;labelBackgroundColor=none;endArrow=open;endFill=0;dashed=1;rounded=0;exitX=0;exitY=0.5;exitDx=0;exitDy=0;entryX=1;entryY=1;entryDx=0;entryDy=0;" edge="1" parent="1" source="3YSj2OsYEMi9KOAI4YBQ-63" target="3YSj2OsYEMi9KOAI4YBQ-62">
          <mxGeometry width="160" relative="1" as="geometry">
            <mxPoint x="677" y="1106" as="sourcePoint" />
            <mxPoint x="500" y="1060" as="targetPoint" />
          </mxGeometry>
        </mxCell>
        <mxCell id="3YSj2OsYEMi9KOAI4YBQ-67" value="&amp;lt;&amp;lt;extend&amp;gt;&amp;gt;" style="html=1;verticalAlign=bottom;labelBackgroundColor=none;endArrow=open;endFill=0;dashed=1;rounded=0;exitX=0;exitY=0.5;exitDx=0;exitDy=0;entryX=1;entryY=0.5;entryDx=0;entryDy=0;" edge="1" parent="1" source="3YSj2OsYEMi9KOAI4YBQ-64" target="3YSj2OsYEMi9KOAI4YBQ-62">
          <mxGeometry width="160" relative="1" as="geometry">
            <mxPoint x="687" y="860" as="sourcePoint" />
            <mxPoint x="530" y="860" as="targetPoint" />
          </mxGeometry>
        </mxCell>
        <mxCell id="3YSj2OsYEMi9KOAI4YBQ-68" value="&amp;lt;&amp;lt;extend&amp;gt;&amp;gt;" style="html=1;verticalAlign=bottom;labelBackgroundColor=none;endArrow=open;endFill=0;dashed=1;rounded=0;exitX=0;exitY=0.5;exitDx=0;exitDy=0;entryX=1;entryY=0;entryDx=0;entryDy=0;" edge="1" parent="1" source="3YSj2OsYEMi9KOAI4YBQ-65" target="3YSj2OsYEMi9KOAI4YBQ-62">
          <mxGeometry width="160" relative="1" as="geometry">
            <mxPoint x="627" y="860" as="sourcePoint" />
            <mxPoint x="450" y="906" as="targetPoint" />
          </mxGeometry>
        </mxCell>
        <mxCell id="3YSj2OsYEMi9KOAI4YBQ-69" value="" style="endArrow=none;html=1;rounded=0;entryX=1;entryY=0.3333333333333333;entryDx=0;entryDy=0;entryPerimeter=0;exitX=0;exitY=0.5;exitDx=0;exitDy=0;" edge="1" parent="1" source="3YSj2OsYEMi9KOAI4YBQ-62" target="3YSj2OsYEMi9KOAI4YBQ-3">
          <mxGeometry width="50" height="50" relative="1" as="geometry">
            <mxPoint x="393" y="910" as="sourcePoint" />
            <mxPoint x="220" y="699" as="targetPoint" />
          </mxGeometry>
        </mxCell>
        <mxCell id="3YSj2OsYEMi9KOAI4YBQ-71" value="Управление вторсырьем" style="ellipse;whiteSpace=wrap;html=1;" vertex="1" parent="1">
          <mxGeometry x="1080" y="390" width="130" height="40" as="geometry" />
        </mxCell>
        <mxCell id="3YSj2OsYEMi9KOAI4YBQ-72" value="" style="endArrow=none;html=1;rounded=0;exitX=0;exitY=0.3333333333333333;exitDx=0;exitDy=0;entryX=1;entryY=0.5;entryDx=0;entryDy=0;exitPerimeter=0;" edge="1" parent="1" source="3YSj2OsYEMi9KOAI4YBQ-2" target="3YSj2OsYEMi9KOAI4YBQ-71">
          <mxGeometry width="50" height="50" relative="1" as="geometry">
            <mxPoint x="1428" y="485" as="sourcePoint" />
            <mxPoint x="1190" y="684" as="targetPoint" />
          </mxGeometry>
        </mxCell>
        <mxCell id="3YSj2OsYEMi9KOAI4YBQ-81" value="Добавление проверки веса" style="ellipse;whiteSpace=wrap;html=1;" vertex="1" parent="1">
          <mxGeometry x="850" y="460" width="150" height="50" as="geometry" />
        </mxCell>
        <mxCell id="3YSj2OsYEMi9KOAI4YBQ-82" value="Добавление вторсырья" style="ellipse;whiteSpace=wrap;html=1;" vertex="1" parent="1">
          <mxGeometry x="860" y="280" width="130" height="40" as="geometry" />
        </mxCell>
        <mxCell id="3YSj2OsYEMi9KOAI4YBQ-83" value="Удаление вторсырья" style="ellipse;whiteSpace=wrap;html=1;" vertex="1" parent="1">
          <mxGeometry x="860" y="400" width="130" height="40" as="geometry" />
        </mxCell>
        <mxCell id="3YSj2OsYEMi9KOAI4YBQ-84" value="Изменение проверки веса" style="ellipse;whiteSpace=wrap;html=1;" vertex="1" parent="1">
          <mxGeometry x="855" y="529" width="140" height="50" as="geometry" />
        </mxCell>
        <mxCell id="3YSj2OsYEMi9KOAI4YBQ-85" value="Изменение вторсырья&lt;span style=&quot;color: rgba(0, 0, 0, 0); font-family: monospace; font-size: 0px; text-align: start; text-wrap: nowrap;&quot;&gt;%3CmxGraphModel%3E%3Croot%3E%3CmxCell%20id%3D%220%22%2F%3E%3CmxCell%20id%3D%221%22%20parent%3D%220%22%2F%3E%3CmxCell%20id%3D%222%22%20value%3D%22%D0%A3%D0%BF%D1%80%D0%B0%D0%B2%D0%BB%D0%B5%D0%BD%D0%B8%D0%B5%20%D0%B2%D1%82%D0%BE%D1%80%D1%81%D1%8B%D1%80%D1%8C%D0%B5%D0%BC%22%20style%3D%22ellipse%3BwhiteSpace%3Dwrap%3Bhtml%3D1%3B%22%20vertex%3D%221%22%20parent%3D%221%22%3E%3CmxGeometry%20x%3D%221130%22%20y%3D%22-150%22%20width%3D%22130%22%20height%3D%2240%22%20as%3D%22geometry%22%2F%3E%3C%2FmxCell%3E%3C%2Froot%3E%3C%2FmxGraphModel%3E&lt;/span&gt;" style="ellipse;whiteSpace=wrap;html=1;" vertex="1" parent="1">
          <mxGeometry x="860" y="340" width="130" height="40" as="geometry" />
        </mxCell>
        <mxCell id="3YSj2OsYEMi9KOAI4YBQ-89" value="&amp;lt;&amp;lt;extend&amp;gt;&amp;gt;" style="html=1;verticalAlign=bottom;labelBackgroundColor=none;endArrow=open;endFill=0;dashed=1;rounded=0;entryX=0;entryY=1;entryDx=0;entryDy=0;exitX=1;exitY=0.5;exitDx=0;exitDy=0;" edge="1" parent="1" source="3YSj2OsYEMi9KOAI4YBQ-81" target="3YSj2OsYEMi9KOAI4YBQ-71">
          <mxGeometry width="160" relative="1" as="geometry">
            <mxPoint x="1080" y="131" as="sourcePoint" />
            <mxPoint x="992" y="180" as="targetPoint" />
          </mxGeometry>
        </mxCell>
        <mxCell id="3YSj2OsYEMi9KOAI4YBQ-90" value="&amp;lt;&amp;lt;extend&amp;gt;&amp;gt;" style="html=1;verticalAlign=bottom;labelBackgroundColor=none;endArrow=open;endFill=0;dashed=1;rounded=0;exitX=1;exitY=0.5;exitDx=0;exitDy=0;entryX=0.5;entryY=0;entryDx=0;entryDy=0;" edge="1" parent="1" source="3YSj2OsYEMi9KOAI4YBQ-82" target="3YSj2OsYEMi9KOAI4YBQ-71">
          <mxGeometry width="160" relative="1" as="geometry">
            <mxPoint x="1098" y="171" as="sourcePoint" />
            <mxPoint x="1010" y="220" as="targetPoint" />
          </mxGeometry>
        </mxCell>
        <mxCell id="3YSj2OsYEMi9KOAI4YBQ-91" value="&amp;lt;&amp;lt;extend&amp;gt;&amp;gt;" style="html=1;verticalAlign=bottom;labelBackgroundColor=none;endArrow=open;endFill=0;dashed=1;rounded=0;exitX=1;exitY=0.5;exitDx=0;exitDy=0;entryX=0;entryY=0;entryDx=0;entryDy=0;" edge="1" parent="1" source="3YSj2OsYEMi9KOAI4YBQ-85" target="3YSj2OsYEMi9KOAI4YBQ-71">
          <mxGeometry width="160" relative="1" as="geometry">
            <mxPoint x="1030" y="330" as="sourcePoint" />
            <mxPoint x="1155" y="400" as="targetPoint" />
          </mxGeometry>
        </mxCell>
        <mxCell id="3YSj2OsYEMi9KOAI4YBQ-92" value="&amp;lt;&amp;lt;extend&amp;gt;&amp;gt;" style="html=1;verticalAlign=bottom;labelBackgroundColor=none;endArrow=open;endFill=0;dashed=1;rounded=0;entryX=0;entryY=0.5;entryDx=0;entryDy=0;exitX=1;exitY=0.5;exitDx=0;exitDy=0;" edge="1" parent="1" source="3YSj2OsYEMi9KOAI4YBQ-83" target="3YSj2OsYEMi9KOAI4YBQ-71">
          <mxGeometry width="160" relative="1" as="geometry">
            <mxPoint x="1115" y="520" as="sourcePoint" />
            <mxPoint x="1027" y="569" as="targetPoint" />
          </mxGeometry>
        </mxCell>
        <mxCell id="3YSj2OsYEMi9KOAI4YBQ-93" value="&amp;lt;&amp;lt;extend&amp;gt;&amp;gt;" style="html=1;verticalAlign=bottom;labelBackgroundColor=none;endArrow=open;endFill=0;dashed=1;rounded=0;entryX=0.5;entryY=1;entryDx=0;entryDy=0;exitX=1;exitY=0.5;exitDx=0;exitDy=0;" edge="1" parent="1" source="3YSj2OsYEMi9KOAI4YBQ-84" target="3YSj2OsYEMi9KOAI4YBQ-71">
          <mxGeometry width="160" relative="1" as="geometry">
            <mxPoint x="1150" y="679.5" as="sourcePoint" />
            <mxPoint x="1259" y="568.5" as="targetPoint" />
          </mxGeometry>
        </mxCell>
        <mxCell id="3YSj2OsYEMi9KOAI4YBQ-97" value="Управление пунктами приема вторсырья" style="ellipse;whiteSpace=wrap;html=1;" vertex="1" parent="1">
          <mxGeometry x="1220" y="165" width="159" height="45" as="geometry" />
        </mxCell>
        <mxCell id="3YSj2OsYEMi9KOAI4YBQ-98" value="" style="endArrow=none;html=1;rounded=0;entryX=1;entryY=0.5;entryDx=0;entryDy=0;exitX=0;exitY=0.3333333333333333;exitDx=0;exitDy=0;exitPerimeter=0;" edge="1" parent="1" source="3YSj2OsYEMi9KOAI4YBQ-2" target="3YSj2OsYEMi9KOAI4YBQ-97">
          <mxGeometry width="50" height="50" relative="1" as="geometry">
            <mxPoint x="1530" y="310" as="sourcePoint" />
            <mxPoint x="1310" y="420" as="targetPoint" />
          </mxGeometry>
        </mxCell>
        <mxCell id="3YSj2OsYEMi9KOAI4YBQ-99" value="Добавление пункта приема" style="ellipse;whiteSpace=wrap;html=1;" vertex="1" parent="1">
          <mxGeometry x="1210" y="70" width="130" height="40" as="geometry" />
        </mxCell>
        <mxCell id="3YSj2OsYEMi9KOAI4YBQ-100" value="Изменение времени работы пункта" style="ellipse;whiteSpace=wrap;html=1;" vertex="1" parent="1">
          <mxGeometry x="1050" y="100" width="140" height="40" as="geometry" />
        </mxCell>
        <mxCell id="3YSj2OsYEMi9KOAI4YBQ-101" value="Удаление пункта приема" style="ellipse;whiteSpace=wrap;html=1;" vertex="1" parent="1">
          <mxGeometry x="960" y="170" width="130" height="40" as="geometry" />
        </mxCell>
        <mxCell id="3YSj2OsYEMi9KOAI4YBQ-102" value="Добавление ключей" style="ellipse;whiteSpace=wrap;html=1;" vertex="1" parent="1">
          <mxGeometry x="1090" y="250" width="130" height="40" as="geometry" />
        </mxCell>
        <mxCell id="3YSj2OsYEMi9KOAI4YBQ-103" value="Изменение ключей" style="ellipse;whiteSpace=wrap;html=1;" vertex="1" parent="1">
          <mxGeometry x="1229" y="290" width="130" height="40" as="geometry" />
        </mxCell>
        <mxCell id="3YSj2OsYEMi9KOAI4YBQ-106" value="&amp;lt;&amp;lt;extend&amp;gt;&amp;gt;" style="html=1;verticalAlign=bottom;labelBackgroundColor=none;endArrow=open;endFill=0;dashed=1;rounded=0;entryX=0.5;entryY=0;entryDx=0;entryDy=0;exitX=0.5;exitY=1;exitDx=0;exitDy=0;" edge="1" parent="1" source="3YSj2OsYEMi9KOAI4YBQ-99" target="3YSj2OsYEMi9KOAI4YBQ-97">
          <mxGeometry width="160" relative="1" as="geometry">
            <mxPoint x="1309" y="140" as="sourcePoint" />
            <mxPoint x="1221" y="189" as="targetPoint" />
          </mxGeometry>
        </mxCell>
        <mxCell id="3YSj2OsYEMi9KOAI4YBQ-107" value="&amp;lt;&amp;lt;extend&amp;gt;&amp;gt;" style="html=1;verticalAlign=bottom;labelBackgroundColor=none;endArrow=open;endFill=0;dashed=1;rounded=0;entryX=0;entryY=0;entryDx=0;entryDy=0;exitX=0.5;exitY=1;exitDx=0;exitDy=0;" edge="1" parent="1" source="3YSj2OsYEMi9KOAI4YBQ-100" target="3YSj2OsYEMi9KOAI4YBQ-97">
          <mxGeometry width="160" relative="1" as="geometry">
            <mxPoint x="1240" y="90" as="sourcePoint" />
            <mxPoint x="1240" y="245" as="targetPoint" />
          </mxGeometry>
        </mxCell>
        <mxCell id="3YSj2OsYEMi9KOAI4YBQ-108" value="&amp;lt;&amp;lt;extend&amp;gt;&amp;gt;" style="html=1;verticalAlign=bottom;labelBackgroundColor=none;endArrow=open;endFill=0;dashed=1;rounded=0;entryX=0;entryY=0.5;entryDx=0;entryDy=0;exitX=1;exitY=0.5;exitDx=0;exitDy=0;" edge="1" parent="1" source="3YSj2OsYEMi9KOAI4YBQ-101" target="3YSj2OsYEMi9KOAI4YBQ-97">
          <mxGeometry width="160" relative="1" as="geometry">
            <mxPoint x="1110" y="223" as="sourcePoint" />
            <mxPoint x="1212" y="280" as="targetPoint" />
          </mxGeometry>
        </mxCell>
        <mxCell id="3YSj2OsYEMi9KOAI4YBQ-109" value="&amp;lt;&amp;lt;extend&amp;gt;&amp;gt;" style="html=1;verticalAlign=bottom;labelBackgroundColor=none;endArrow=open;endFill=0;dashed=1;rounded=0;entryX=0.5;entryY=1;entryDx=0;entryDy=0;exitX=0.5;exitY=0;exitDx=0;exitDy=0;" edge="1" parent="1" source="3YSj2OsYEMi9KOAI4YBQ-103" target="3YSj2OsYEMi9KOAI4YBQ-97">
          <mxGeometry width="160" relative="1" as="geometry">
            <mxPoint x="1334" y="235" as="sourcePoint" />
            <mxPoint x="1359" y="290" as="targetPoint" />
          </mxGeometry>
        </mxCell>
        <mxCell id="3YSj2OsYEMi9KOAI4YBQ-110" value="&amp;lt;&amp;lt;extend&amp;gt;&amp;gt;" style="html=1;verticalAlign=bottom;labelBackgroundColor=none;endArrow=open;endFill=0;dashed=1;rounded=0;entryX=0;entryY=1;entryDx=0;entryDy=0;exitX=0.5;exitY=0;exitDx=0;exitDy=0;" edge="1" parent="1" source="3YSj2OsYEMi9KOAI4YBQ-102" target="3YSj2OsYEMi9KOAI4YBQ-97">
          <mxGeometry width="160" relative="1" as="geometry">
            <mxPoint x="1100" y="200" as="sourcePoint" />
            <mxPoint x="1230" y="198" as="targetPoint" />
          </mxGeometry>
        </mxCell>
        <mxCell id="3YSj2OsYEMi9KOAI4YBQ-111" value="Управление скидками" style="ellipse;whiteSpace=wrap;html=1;" vertex="1" parent="1">
          <mxGeometry x="1240" y="559" width="130" height="40" as="geometry" />
        </mxCell>
        <mxCell id="3YSj2OsYEMi9KOAI4YBQ-112" value="" style="endArrow=none;html=1;rounded=0;exitX=0;exitY=0.3333333333333333;exitDx=0;exitDy=0;entryX=1;entryY=0.5;entryDx=0;entryDy=0;exitPerimeter=0;" edge="1" parent="1" source="3YSj2OsYEMi9KOAI4YBQ-2" target="3YSj2OsYEMi9KOAI4YBQ-111">
          <mxGeometry width="50" height="50" relative="1" as="geometry">
            <mxPoint x="1589" y="460" as="sourcePoint" />
            <mxPoint x="1319" y="460" as="targetPoint" />
          </mxGeometry>
        </mxCell>
        <mxCell id="3YSj2OsYEMi9KOAI4YBQ-115" value="Добавление скидки" style="ellipse;whiteSpace=wrap;html=1;" vertex="1" parent="1">
          <mxGeometry x="1140" y="460" width="130" height="40" as="geometry" />
        </mxCell>
        <mxCell id="3YSj2OsYEMi9KOAI4YBQ-116" value="Изменение скидки" style="ellipse;whiteSpace=wrap;html=1;" vertex="1" parent="1">
          <mxGeometry x="1040" y="545" width="130" height="40" as="geometry" />
        </mxCell>
        <mxCell id="3YSj2OsYEMi9KOAI4YBQ-117" value="Удаление скидки" style="ellipse;whiteSpace=wrap;html=1;" vertex="1" parent="1">
          <mxGeometry x="1050" y="609" width="130" height="40" as="geometry" />
        </mxCell>
        <mxCell id="3YSj2OsYEMi9KOAI4YBQ-118" value="&amp;lt;&amp;lt;extend&amp;gt;&amp;gt;" style="html=1;verticalAlign=bottom;labelBackgroundColor=none;endArrow=open;endFill=0;dashed=1;rounded=0;entryX=0.5;entryY=0;entryDx=0;entryDy=0;exitX=0.5;exitY=1;exitDx=0;exitDy=0;" edge="1" parent="1" source="3YSj2OsYEMi9KOAI4YBQ-115" target="3YSj2OsYEMi9KOAI4YBQ-111">
          <mxGeometry width="160" relative="1" as="geometry">
            <mxPoint x="1190" y="671" as="sourcePoint" />
            <mxPoint x="1340" y="547" as="targetPoint" />
          </mxGeometry>
        </mxCell>
        <mxCell id="3YSj2OsYEMi9KOAI4YBQ-119" value="&amp;lt;&amp;lt;extend&amp;gt;&amp;gt;" style="html=1;verticalAlign=bottom;labelBackgroundColor=none;endArrow=open;endFill=0;dashed=1;rounded=0;entryX=0;entryY=0.5;entryDx=0;entryDy=0;exitX=1;exitY=0.5;exitDx=0;exitDy=0;" edge="1" parent="1" source="3YSj2OsYEMi9KOAI4YBQ-116" target="3YSj2OsYEMi9KOAI4YBQ-111">
          <mxGeometry width="160" relative="1" as="geometry">
            <mxPoint x="1190" y="654" as="sourcePoint" />
            <mxPoint x="1295" y="594" as="targetPoint" />
          </mxGeometry>
        </mxCell>
        <mxCell id="3YSj2OsYEMi9KOAI4YBQ-120" value="&amp;lt;&amp;lt;extend&amp;gt;&amp;gt;" style="html=1;verticalAlign=bottom;labelBackgroundColor=none;endArrow=open;endFill=0;dashed=1;rounded=0;entryX=0;entryY=1;entryDx=0;entryDy=0;exitX=1;exitY=0.5;exitDx=0;exitDy=0;" edge="1" parent="1" source="3YSj2OsYEMi9KOAI4YBQ-117" target="3YSj2OsYEMi9KOAI4YBQ-111">
          <mxGeometry width="160" relative="1" as="geometry">
            <mxPoint x="1330" y="700" as="sourcePoint" />
            <mxPoint x="1390" y="569" as="targetPoint" />
          </mxGeometry>
        </mxCell>
        <mxCell id="3YSj2OsYEMi9KOAI4YBQ-121" value="Управление статьями" style="ellipse;whiteSpace=wrap;html=1;" vertex="1" parent="1">
          <mxGeometry x="1200" y="730" width="130" height="40" as="geometry" />
        </mxCell>
        <mxCell id="3YSj2OsYEMi9KOAI4YBQ-122" value="" style="endArrow=none;html=1;rounded=0;exitX=0;exitY=0.3333333333333333;exitDx=0;exitDy=0;entryX=1;entryY=0.5;entryDx=0;entryDy=0;exitPerimeter=0;" edge="1" parent="1" source="3YSj2OsYEMi9KOAI4YBQ-2" target="3YSj2OsYEMi9KOAI4YBQ-121">
          <mxGeometry width="50" height="50" relative="1" as="geometry">
            <mxPoint x="1620" y="661" as="sourcePoint" />
            <mxPoint x="1510" y="830" as="targetPoint" />
          </mxGeometry>
        </mxCell>
        <mxCell id="3YSj2OsYEMi9KOAI4YBQ-123" value="Просмотр статей" style="ellipse;whiteSpace=wrap;html=1;" vertex="1" parent="1">
          <mxGeometry x="1120" y="870" width="130" height="40" as="geometry" />
        </mxCell>
        <mxCell id="3YSj2OsYEMi9KOAI4YBQ-124" value="Удаление статей пользователя" style="ellipse;whiteSpace=wrap;html=1;" vertex="1" parent="1">
          <mxGeometry x="990" y="830" width="130" height="40" as="geometry" />
        </mxCell>
        <mxCell id="3YSj2OsYEMi9KOAI4YBQ-125" value="Изменение статей" style="ellipse;whiteSpace=wrap;html=1;" vertex="1" parent="1">
          <mxGeometry x="990" y="760" width="130" height="40" as="geometry" />
        </mxCell>
        <mxCell id="3YSj2OsYEMi9KOAI4YBQ-126" value="Добавление статей" style="ellipse;whiteSpace=wrap;html=1;" vertex="1" parent="1">
          <mxGeometry x="1040" y="690" width="130" height="40" as="geometry" />
        </mxCell>
        <mxCell id="3YSj2OsYEMi9KOAI4YBQ-127" value="&amp;lt;&amp;lt;extend&amp;gt;&amp;gt;" style="html=1;verticalAlign=bottom;labelBackgroundColor=none;endArrow=open;endFill=0;dashed=1;rounded=0;entryX=0;entryY=0;entryDx=0;entryDy=0;exitX=1;exitY=0.5;exitDx=0;exitDy=0;" edge="1" parent="1" source="3YSj2OsYEMi9KOAI4YBQ-126" target="3YSj2OsYEMi9KOAI4YBQ-121">
          <mxGeometry width="160" relative="1" as="geometry">
            <mxPoint x="1190" y="639" as="sourcePoint" />
            <mxPoint x="1269" y="603" as="targetPoint" />
          </mxGeometry>
        </mxCell>
        <mxCell id="3YSj2OsYEMi9KOAI4YBQ-130" value="&amp;lt;&amp;lt;extend&amp;gt;&amp;gt;" style="html=1;verticalAlign=bottom;labelBackgroundColor=none;endArrow=open;endFill=0;dashed=1;rounded=0;entryX=0;entryY=0.5;entryDx=0;entryDy=0;exitX=1;exitY=0.5;exitDx=0;exitDy=0;" edge="1" parent="1" source="3YSj2OsYEMi9KOAI4YBQ-125" target="3YSj2OsYEMi9KOAI4YBQ-121">
          <mxGeometry width="160" relative="1" as="geometry">
            <mxPoint x="1170" y="980" as="sourcePoint" />
            <mxPoint x="1320" y="856" as="targetPoint" />
          </mxGeometry>
        </mxCell>
        <mxCell id="3YSj2OsYEMi9KOAI4YBQ-131" value="&amp;lt;&amp;lt;extend&amp;gt;&amp;gt;" style="html=1;verticalAlign=bottom;labelBackgroundColor=none;endArrow=open;endFill=0;dashed=1;rounded=0;entryX=0.5;entryY=1;entryDx=0;entryDy=0;exitX=0.5;exitY=0;exitDx=0;exitDy=0;" edge="1" parent="1" source="3YSj2OsYEMi9KOAI4YBQ-123" target="3YSj2OsYEMi9KOAI4YBQ-121">
          <mxGeometry width="160" relative="1" as="geometry">
            <mxPoint x="1150" y="1052" as="sourcePoint" />
            <mxPoint x="1300" y="928" as="targetPoint" />
          </mxGeometry>
        </mxCell>
        <mxCell id="3YSj2OsYEMi9KOAI4YBQ-132" value="&amp;lt;&amp;lt;extend&amp;gt;&amp;gt;" style="html=1;verticalAlign=bottom;labelBackgroundColor=none;endArrow=open;endFill=0;dashed=1;rounded=0;entryX=0;entryY=1;entryDx=0;entryDy=0;exitX=1;exitY=0.5;exitDx=0;exitDy=0;" edge="1" parent="1" source="3YSj2OsYEMi9KOAI4YBQ-124" target="3YSj2OsYEMi9KOAI4YBQ-121">
          <mxGeometry width="160" relative="1" as="geometry">
            <mxPoint x="1040" y="1034" as="sourcePoint" />
            <mxPoint x="1190" y="910" as="targetPoint" />
          </mxGeometry>
        </mxCell>
        <mxCell id="3YSj2OsYEMi9KOAI4YBQ-133" value="Оценка статей" style="ellipse;whiteSpace=wrap;html=1;" vertex="1" parent="1">
          <mxGeometry x="1260" y="910" width="130" height="40" as="geometry" />
        </mxCell>
        <mxCell id="3YSj2OsYEMi9KOAI4YBQ-134" value="" style="endArrow=none;html=1;rounded=0;exitX=0;exitY=0.3333333333333333;exitDx=0;exitDy=0;entryX=1;entryY=0.5;entryDx=0;entryDy=0;exitPerimeter=0;" edge="1" parent="1" source="3YSj2OsYEMi9KOAI4YBQ-2" target="3YSj2OsYEMi9KOAI4YBQ-133">
          <mxGeometry width="50" height="50" relative="1" as="geometry">
            <mxPoint x="1580" y="420" as="sourcePoint" />
            <mxPoint x="1340" y="760" as="targetPoint" />
          </mxGeometry>
        </mxCell>
        <mxCell id="3YSj2OsYEMi9KOAI4YBQ-135" value="Добавление комментариев" style="ellipse;whiteSpace=wrap;html=1;" vertex="1" parent="1">
          <mxGeometry x="970" y="940" width="130" height="40" as="geometry" />
        </mxCell>
        <mxCell id="3YSj2OsYEMi9KOAI4YBQ-136" value="Добавление отметки &quot;Нравится&quot;" style="ellipse;whiteSpace=wrap;html=1;" vertex="1" parent="1">
          <mxGeometry x="1064" y="1000" width="136" height="40" as="geometry" />
        </mxCell>
        <mxCell id="3YSj2OsYEMi9KOAI4YBQ-137" value="Удаление комментариев" style="ellipse;whiteSpace=wrap;html=1;" vertex="1" parent="1">
          <mxGeometry x="1190" y="1020" width="130" height="40" as="geometry" />
        </mxCell>
        <mxCell id="3YSj2OsYEMi9KOAI4YBQ-138" value="Удаление комментариев пользователей" style="ellipse;whiteSpace=wrap;html=1;" vertex="1" parent="1">
          <mxGeometry x="1330" y="1000" width="160" height="50" as="geometry" />
        </mxCell>
        <mxCell id="3YSj2OsYEMi9KOAI4YBQ-139" value="&amp;lt;&amp;lt;extend&amp;gt;&amp;gt;" style="html=1;verticalAlign=bottom;labelBackgroundColor=none;endArrow=open;endFill=0;dashed=1;rounded=0;entryX=0;entryY=0;entryDx=0;entryDy=0;exitX=1;exitY=0.5;exitDx=0;exitDy=0;" edge="1" parent="1" source="3YSj2OsYEMi9KOAI4YBQ-135" target="3YSj2OsYEMi9KOAI4YBQ-133">
          <mxGeometry width="160" relative="1" as="geometry">
            <mxPoint x="1200" y="1000" as="sourcePoint" />
            <mxPoint x="1280" y="900" as="targetPoint" />
          </mxGeometry>
        </mxCell>
        <mxCell id="3YSj2OsYEMi9KOAI4YBQ-140" value="&amp;lt;&amp;lt;extend&amp;gt;&amp;gt;" style="html=1;verticalAlign=bottom;labelBackgroundColor=none;endArrow=open;endFill=0;dashed=1;rounded=0;entryX=0.5;entryY=1;entryDx=0;entryDy=0;exitX=0.5;exitY=0;exitDx=0;exitDy=0;" edge="1" parent="1" source="3YSj2OsYEMi9KOAI4YBQ-138" target="3YSj2OsYEMi9KOAI4YBQ-133">
          <mxGeometry width="160" relative="1" as="geometry">
            <mxPoint x="1520" y="1000" as="sourcePoint" />
            <mxPoint x="1600" y="900" as="targetPoint" />
          </mxGeometry>
        </mxCell>
        <mxCell id="3YSj2OsYEMi9KOAI4YBQ-141" value="&amp;lt;&amp;lt;extend&amp;gt;&amp;gt;" style="html=1;verticalAlign=bottom;labelBackgroundColor=none;endArrow=open;endFill=0;dashed=1;rounded=0;entryX=0;entryY=1;entryDx=0;entryDy=0;exitX=0.5;exitY=0;exitDx=0;exitDy=0;" edge="1" parent="1" source="3YSj2OsYEMi9KOAI4YBQ-137" target="3YSj2OsYEMi9KOAI4YBQ-133">
          <mxGeometry width="160" relative="1" as="geometry">
            <mxPoint x="1250" y="1020" as="sourcePoint" />
            <mxPoint x="1330" y="920" as="targetPoint" />
          </mxGeometry>
        </mxCell>
        <mxCell id="3YSj2OsYEMi9KOAI4YBQ-144" value="" style="rounded=0;whiteSpace=wrap;html=1;fillColor=none;" vertex="1" parent="1">
          <mxGeometry x="260" y="-60" width="1260" height="1240" as="geometry" />
        </mxCell>
        <mxCell id="3YSj2OsYEMi9KOAI4YBQ-143" value="&amp;lt;&amp;lt;extend&amp;gt;&amp;gt;" style="html=1;verticalAlign=bottom;labelBackgroundColor=none;endArrow=open;endFill=0;dashed=1;rounded=0;entryX=0;entryY=0.5;entryDx=0;entryDy=0;exitX=0.5;exitY=0;exitDx=0;exitDy=0;" edge="1" parent="1" source="3YSj2OsYEMi9KOAI4YBQ-136" target="3YSj2OsYEMi9KOAI4YBQ-133">
          <mxGeometry width="160" relative="1" as="geometry">
            <mxPoint x="1180" y="1020" as="sourcePoint" />
            <mxPoint x="1260" y="920" as="targetPoint" />
          </mxGeometry>
        </mxCell>
      </root>
    </mxGraphModel>
  </diagram>
</mxfile>
